# xmcd
#
# Track frame offsets:
#	150
#	9578
#	20138
#	31872
#	47173
#	60375
#	83260
#	100518
#	119482
#	127170
#	138873
#	153810
#	184199
#
# Disc length: 3389 seconds
#
# Revision: 1
# Processed by: cddbd v1.5.2PL0 Copyright (c) Steve Scherf et al.
# Submitted via: audiograbber 1.81.02
#
DISCID=9b0d3b0d
DTITLE=TOMISLAV "Little Pigeon" GOLUBAN - 200$ SUN Memphis Album
DYEAR=2010
DGENRE=Blues
TTITLE0=Grabrovec-Tennessee
TTITLE1=Amazing Grace
TTITLE2=The Rakija Song
TTITLE3=Sunset Jam
TTITLE4=Boogie Jam
TTITLE5=Mighty Long Time
TTITLE6=Memphis Sara
TTITLE7=0,5 Live
TTITLE8=Pigeon's Flight Live
TTITLE9=Isel budem v kleticu
TTITLE10=T-Train Live
TTITLE11=Mr.B. Live
TTITLE12=Data Track
EXTD=
EXTT0=
EXTT1=
EXTT2=
EXTT3=
EXTT4=
EXTT5=
EXTT6=
EXTT7=
EXTT8=
EXTT9=
EXTT10=
EXTT11=
EXTT12=
PLAYORDER=
